<svg xmlns="http://www.w3.org/2000/svg" viewBox="0 -728 5251 928" width="543" height="96"><g transform="translate(0 -728.0) scale(7.4118)"><path fill="#0B1220" d="M0 0H82V16H16V84H32L48 100H0Z"/><path fill="#0B1220" d="M38.34 77.66L49.66 66.34L62 78.69L104.34 36.34L115.66 47.66L62 101.31Z"/></g><path fill="#0B1220" transform="translate(1086.6 0)" d="M314 14Q237 14 188.0 -12.5Q139 -39 115.0 -80.5Q91 -122 88 -166L162 -184Q167 -127 206.5 -92.5Q246 -58 310 -58Q365 -58 398.5 -79.5Q432 -101 432 -140Q432 -182 399.0 -200.0Q366 -218 292 -223Q207 -229 160.5 -263.5Q114 -298 114 -362V-368Q114 -415 140.0 -446.5Q166 -478 207.0 -494.0Q248 -510 294 -510Q360 -510 403.5 -487.5Q447 -465 470.0 -429.5Q493 -394 498 -356L424 -338Q420 -386 386.0 -413.0Q352 -440 298 -440Q256 -440 223.0 -422.0Q190 -404 190 -368Q190 -332 220.5 -313.0Q251 -294 332 -288Q418 -281 464.0 -246.5Q510 -212 510 -146V-140Q510 -68 455.5 -27.0Q401 14 314 14Z M679 0V-700H757V-406H769Q792 -454 833.5 -482.0Q875 -510 935 -510Q1016 -510 1066.5 -456.5Q1117 -403 1117 -296V0H1039V-280Q1039 -358 1004.0 -397.0Q969 -436 909 -436Q839 -436 798.0 -387.5Q757 -339 757 -258V0Z M1490 14Q1424 14 1367.5 -16.0Q1311 -46 1276.0 -103.0Q1241 -160 1241 -242V-254Q1241 -335 1276.0 -392.5Q1311 -450 1367.5 -480.0Q1424 -510 1490 -510Q1556 -510 1612.5 -480.0Q1669 -450 1704.0 -392.5Q1739 -335 1739 -254V-242Q1739 -160 1704.0 -103.0Q1669 -46 1612.5 -16.0Q1556 14 1490 14ZM1490 -60Q1538 -60 1576.0 -82.0Q1614 -104 1636.5 -145.0Q1659 -186 1659 -242V-254Q1659 -308 1636.5 -349.0Q1614 -390 1575.5 -413.0Q1537 -436 1490 -436Q1443 -436 1404.5 -413.0Q1366 -390 1343.5 -349.0Q1321 -308 1321 -254V-242Q1321 -186 1343.5 -145.0Q1366 -104 1404.5 -82.0Q1443 -60 1490 -60Z M2087 -574Q2059 -574 2038.0 -595.0Q2017 -616 2017 -644Q2017 -673 2038.0 -693.5Q2059 -714 2087 -714Q2116 -714 2136.5 -693.5Q2157 -673 2157 -644Q2157 -616 2136.5 -595.0Q2116 -574 2087 -574ZM1875 0V-72H2049V-424H1893V-496H2127V-72H2289V0Z M2415 0V-72H2529V-424H2427V-496H2607V-430H2619Q2638 -471 2673.5 -490.5Q2709 -510 2753 -510Q2827 -510 2873.5 -461.0Q2920 -412 2923 -318L2841 -306Q2841 -375 2808.0 -405.5Q2775 -436 2727 -436Q2666 -436 2636.5 -391.5Q2607 -347 2607 -282V-72H2733V0Z M3047 0V-72H3227V-628H3053V-700H3305V-72H3485V0Z M3717 200V128H3972Q3999 128 3999 98V-90H3987Q3963 -42 3924.0 -14.0Q3885 14 3825 14Q3743 14 3691.0 -40.0Q3639 -94 3639 -200V-496H3717V-210Q3717 -132 3749.0 -96.0Q3781 -60 3847 -60Q3918 -60 3958.5 -108.5Q3999 -157 3999 -238V-496H4077V122Q4077 156 4055.5 178.0Q4034 200 4000 200Z"/></svg>
